<svg xmlns="http://www.w3.org/2000/svg" viewBox="0 0 128 128" role="img" aria-label="ShadowSSH">
  <defs>
    <linearGradient id="bg" x1="0%" y1="0%" x2="100%" y2="100%">
      <stop offset="0%" stop-color="#1f2937"/>
      <stop offset="100%" stop-color="#020617"/>
    </linearGradient>
  </defs>
  <rect width="128" height="128" rx="30" fill="url(#bg)"/>
  <path d="M82.8 39.9c-4.5-5.7-11.1-8.6-19.8-8.6-10.3 0-18.7 5.3-18.7 15.3 0 10.5 9 13.1 18.2 15.1 8.2 1.8 14.2 3.2 14.2 8.7 0 5-4.7 8.1-11.7 8.1-7.2 0-12.6-2.7-16.8-8.3l-10.2 7.4c5.3 7.9 14.1 12 26.6 12 14.6 0 25.7-7.4 25.7-20.2 0-12.9-10.8-16.2-20.4-18.3-7.3-1.6-12.1-2.8-12.1-7.3 0-4.1 4-6.6 9.8-6.6 5.8 0 10.1 2.1 13.1 6.1l10-7.4z" fill="#ffffff"/>
</svg>
